<svg xmlns="http://www.w3.org/2000/svg" xmlns:xlink="http://www.w3.org/1999/xlink" width="58" height="58" viewBox="0 0 58 58"><defs><style>.a{fill:#ff973b;}.b{fill:#ff761a;}.c,.j{fill:none;}.c{stroke:#ccc;}.d{fill:#7fbdec;}.e{fill:#96c9ef;}.f{fill:#fff;}.g{fill:url(#c);}.h{fill:#e0630c;}.i{stroke:none;}.k{filter:url(#a);}</style><filter id="a" x="0" y="0" width="58" height="58" filterUnits="userSpaceOnUse"><feOffset dy="3" input="SourceAlpha"/><feGaussianBlur stdDeviation="3" result="b"/><feFlood flood-opacity="0.161"/><feComposite operator="in" in2="b"/><feComposite in="SourceGraphic"/></filter><linearGradient id="c" x1="0.5" x2="0.5" y2="1" gradientUnits="objectBoundingBox"><stop offset="0" stop-color="#ff761a"/><stop offset="1" stop-color="#de6700" stop-opacity="0.8"/></linearGradient></defs><g transform="translate(-256 -68)"><g class="k" transform="matrix(1, 0, 0, 1, 256, 68)"><circle class="a" cx="20" cy="20" r="20" transform="translate(9 6)"/></g><circle class="b" cx="3.5" cy="3.5" r="3.5" transform="translate(287 96)"/><g transform="translate(30 -11)"><g class="c" transform="translate(258 101)"><circle class="i" cx="3.5" cy="3.5" r="3.5"/><circle class="j" cx="3.5" cy="3.5" r="3"/></g><g class="c" transform="translate(245 101)"><circle class="i" cx="3.5" cy="3.5" r="3.5"/><circle class="j" cx="3.5" cy="3.5" r="3"/></g><rect class="d" width="14" height="11" transform="translate(248 99)"/><rect class="e" width="14" height="4" transform="translate(248 99)"/><rect class="f" width="10" height="1" transform="translate(250 104)"/><rect class="f" width="10" height="1" transform="translate(250 106)"/><rect class="f" width="10" height="1" transform="translate(250 108)"/></g><circle class="g" cx="3.5" cy="3.5" r="3.5" transform="translate(287 97)"/><circle class="h" cx="1" cy="1" r="1" transform="translate(292.9 100.3)"/><circle class="h" cx="1" cy="1" r="1" transform="translate(292 97)"/><circle class="h" cx="1" cy="1" r="1" transform="translate(288.505 96.3)"/><circle class="h" cx="1" cy="1" r="1" transform="translate(287 102)"/><circle class="h" cx="1" cy="1" r="1" transform="translate(286 98.305)"/><circle class="h" cx="1" cy="1" r="1" transform="translate(291 102.8)"/></g></svg>